<?xml version="1.0"?><svg width="1698.2368" height="850.20557" xmlns="http://www.w3.org/2000/svg">

 <metadata id="metadata4335">image/svg+xml</metadata>
 <g>
  <title>Layer 1</title>
  <g id="layer1">
   <g id="g4372">
    <path opacity="0.99" fill="#ffffff" id="path4348" d="m-0.119009,853.902161c-3.13283,-469.001587 374.533804,-851.739878 843.533132,-854.867852c467.214294,-3.119461 849.191345,371.76632 854.826599,838.955621l-849.159241,10.244934l-849.200491,5.667297z"/>
    <path opacity="0.99" fill="#ff0000" id="path4340" d="m760.998779,4.499194c62.247192,-6.432873 125.009583,-5.968089 187.152466,1.387569l-99.833984,843.331193l-87.318481,-844.718762z"/>
    <path opacity="0.99" fill="#ff0000" d="m1090.931519,36.357727c59.966187,17.893097 117.766968,42.355431 172.356812,72.946182l-415.153015,740.826157l242.796204,-813.772339z" id="path4354"/>
    <path opacity="0.99" fill="#ff0000" id="path4356" d="m1379.603638,188.943146c48.777954,39.202148 93.071411,83.670471 132.078369,132.602081l-664.051392,529.349548l531.973022,-661.95163z"/>
    <path opacity="0.99" fill="#ff0000" d="m1576.431152,416.614777c32.036133,53.756836 58.032227,110.884369 77.516724,170.350372l-807.008789,264.411743l729.492065,-434.762115z" id="path4358"/>
    <path opacity="0.99" fill="#ff0000" id="path4360" d="m1674.344727,663.413147c13.864136,61.023621 20.942627,123.387329 21.105591,185.963867l-849.217407,2.200684l828.111816,-188.164551z"/>
    <path opacity="0.99" fill="#ff0000" id="path4362" d="m-3.035897,851.69043c-0.059976,-62.578674 6.79432,-124.967468 20.440566,-186.038086l828.779474,185.202515l-849.220041,0.835571z"/>
    <path opacity="0.99" fill="#ff0000" d="m42.200832,579.798096c19.990322,-59.30011 46.469707,-116.205261 78.960842,-169.685944l725.773506,440.942657l-804.734348,-271.256714z" id="path4364"/>
    <path opacity="0.99" fill="#ff0000" id="path4366" d="m196.126373,306.863556c40.140106,-48.009094 85.458496,-91.43251 135.136871,-129.483902l516.381348,674.185654l-651.518219,-544.701752z"/>
    <path opacity="0.99" fill="#ff0000" d="m430.319397,112.933151c54.482269,-30.785942 112.194824,-55.455654 172.09491,-73.561596l245.702515,812.89883l-417.797424,-739.337234z" id="path4368"/>
    <path opacity="0.99" fill="#ff0000" d="m567.703003,853.900574c-1.054993,-157.916992 126.108643,-286.788452 284.024841,-287.841797c157.315186,-1.050476 285.930359,125.176758 287.827942,282.483521l-285.919495,3.449768l-285.933289,1.908508z" id="path4370"/>
   </g>
  </g>
 </g>
</svg>